@startuml

package domain.enum{
    enum  "权限类型-AuthorityTypeEnum"  as  AuthTypeEnum{
        DATA(1,"数据字段权限"),
        FUNCATION(2,"菜单功能权限"),
        ADMINISTRATION(3,"行政权限"),
        CUSTOMIZE(4,"自定义权限");
        权限类型code:Integer code
        权限类型描述:String desc
        static AuthorityTypeEnum getByCode(Integer code)
        .. extend info ..
        toRpcClient:String yes
    }

}

package domain.bo  {
  class "操作人信息-OperatorBO"  as  OperatorBO{
        +创建时间:Date dateCreate
        +创建人:Long createUserId
    }

    class   "操作时间信息-OperateDateBO"    as OperateDateBO{
        +修改时间:Date dateUpdate
        +修改人:Long updateUserId
    }

    class "数据操作信息-BasicOperateBO" as BasicOperateBO{
        +修改时间:Date dateUpdate
        +创建时间:Date dateCreate
        +修改人:Long updateUserId
        +创建人:Long createUserId
    }
    class "用户组-UserGroupBO" as UserGroupBO{
        组名:String groupName
        组编码:String groupCode
        组内用户列表:List<UserBO> userList
        用户组状态:Integer status
        用户组对应的角色列表:List<RoleBO> roleList
        用户组对应角色组列表:List<RoleGroupBO> roleGroupList
        +判断角色是否在该用户组中:boolean containsRole(String roleCode)
        +判断用户是否在该用户组中:boolean containsUser(Long userId)
        +将用户从用户组中删除:boolean deleteUser(Long userId)

        .. extend info ..
        tableKey:String user_group

        facadeKey:String UserGroupFacade,UserGroupQueryFacade
        controllerKey:String UserGroupController,UserGroupQueryController

        dtoKeyList:String UpdateUserGroupRequestDTO,UserGroupDTO,CreateUserGroupRequestDTO
        voKeyList:String UpdateUserGroupRequestVO,UserGroupVO,CreateUserGroupRequestVO

        queryDtoKey:UserGroupQueryDTO String groupName,String groupCode,Integer status
        queryVoKey:UserGroupQueryVO String groupName,String groupCode,Integer status

        contextKey:String user


        分页获取用户组信息: PageDTO<UserGroupDTO> UserGroupQueryFacade.getPageList()
        创建用户组: UserGroupDTO UserGroupFacade.createUserGroup(CreateUserGroupRequestDTO createUserGroupRequestDTO).@I
        修改用户组信息: Boolean UserGroupFacade.updateUserGroup(UpdateUserGroupRequestDTO updateUserGroupRequestDTO).@I
        设置用户组状态: Boolean UserGroupFacade.updateUserGroupStatus(String groupCode,Integer status).@I
        根据code获取用户组详情: UserGroupDTO UserGroupQueryFacade.getByGroupCode(String groupCode)
        根据code或者名称搜索用户组信息: List<UserGroupDTO> UserGroupQueryFacade.search(String search)


        分页获取用户组信息/usergroup/pagelist: PageVO<UserGroupVO> userGroupQueryController.getPageList(PageVO<UserGroupVO> pageVO )
        创建用户组/usergroup/create: UserGroupVO UserGroupController.createUserGroup(CreateUserGroupRequestVO createUserGroupRequestVO).@I
        修改用户组信息/usergroup/upate: Boolean UserGroupController.updateUserGroup(UpdateUserGroupRequestVO updateUserGroupRequestVO).@I
        设置用户组状态/usergroup/changestatus: Boolean UserGroupController.updateUserGroupStatus(String groupCode,Integer status).@I
        根据code获取用户组详情/usergroup/detail: UserGroupDTO UserGroupQueryController.getByGroupCode(String groupCode)
        根据code或者名称搜索用户组信息/usergroup/search: List<UserGroupDTO> UserGroupQueryController.search(String search)


    }

    class "用户信息-UserBO" as UserBO{
        用户名:String userName
        用户ID:Long userIdpList
        用户对应角色列表:List<RoleBO> roleList
        用户对应角色组列表:List<RoleGroupBO> roleGrou
        +判断用户是否存在指定角色:boolean containsRole(String roleCode)
        .. extend info ..
        contextKey:String user
    }

    class "角色-RoleBO" as RoleBO{
        角色名称:String roleName
        角色编码:String roleCode
        角色对应用户列表:List<UserBO> userList
        角色状态:Integer status
        .. extend info ..
        tableKey:String role
        +将用户从角色中删除:boolean deleteUser(Long userId)

        controllerKey:String RoleController,RoleQueryController
        facadeKey:String RoleFacade,RoleQueryFacade

        voKeyList:String UpdateRoleRequestVO,RoleVO,CreateRoleRequestVO
        dtoKeyList:String UpdateRoleRequestDTO,RoleDTO,CreateRoleRequestDTO

        queryDtoKey:RoleQueryDTO String roleName,String roleCode,Integer status
        queryVoKey:RoleQueryVO String roleCode,String roleCode,Integer status

        contextKey:String role
        validateKey:String roleName,roleCode
        !invokeFileKey:String rolecontextseq.puml



        创建角色/role/create: RoleVO RoleController.createRole(CreateRoleRequestVO createRoleRequestVO).@I.@T
        根据编码获取角色详情/role/getbyrolecode: RoleVO RoleQueryController.getByRoleCode(String roleCode)
        禁用角色/role/disable: Boolean RoleController.disable(String roleCode).@I.@T
        启用角色/role/enable: Boolean RoleController.enable(String roleCode).@I.@T
        分页获取角色信息/role/pagelist: PageVO<RoleVO> RoleQueryController.getPageList(PageVO<RoleVO> pageVO)
        角色关联用户/role/relatetouser: Boolean RoleController.relateToUser(String userIds).@I.@T


        分页获取角色信息: PageDTO<RoleDTO> RoleQueryFacade.getPageList(PageDTO<RoleDTO> pageDTO)
        创建角色: RoleDTO RoleFacade.createRole(CreateRoleRequestDTO createRoleRequestDTO).@I.@T
        修改角色信息: Boolean RoleFacade.updateRole(UpdateRoleRequestDTO updateRoleRequestDTO).@I.@T
        设置角色状态: Boolean RoleFacade.updateRoleStatus(String groupCode,Integer status)
        根据code获取角色详情: RoleDTO RoleQueryFacade.getByRoleCode(String groupCode)
        根据code或者名称搜索角色信息: List<RoleDTO> RoleQueryFacade.search(String search)
        角色关联用户: Boolean RoleFacade.relateToUser(List<Long> userIdList)
    }

    class "角色组-RoleGroupBO" as RoleGroupBO{
        角色组名称:String roleGroupName
        角色组编码:String roleGroupCode
        组内角色列表:List<RoleBO> roleList
        角色状态:Integer status
        .. extend info ..
        exportaclkey:String DepartmentQueryDTO(roleList->list)

        tableKey:String role_group

        controllerKey:String RoleGroupController,RoleGroupQueryController
        facadeKey:String RoleFacade,RoleQueryFacade

        voKeyList:String UpdateRoleGroupRequestVO,RoleVO,CreateRoleGroupRequestVO
        dtoKeyList:String UpdateRoleGroupRequestDTO,RoleDTO,CreateRoleGroupRequestDTO

        queryDtoKey:RoleGroupQueryDTO String roleName,String roleCode,Integer status
        queryVoKey:RoleGroupQueryVO String roleName,String roleCode,Integer status


        contextKey:String role
        validateKey:String roleGroupName,roleGroupCode


        创建角色组/rolegroup/create: RoleVO RoleGroupController.createRole(CreateRoleGroupRequestVO createRoleRequestVO)
        根据编码获取角色详情/rolegroup/getbyrolecode: RoleVO RoleQueryController.getByRoleCode(String roleCode)
        禁用角色组/rolegroup/disable: Boolean RoleGroupController.disable(String roleCode)
        启用角色组/rolegroup/enable: Boolean RoleGroupController.enable(String roleCode)
        分页获取角色组信息/rolegroup/pagelist: PageVO<RoleVO> RoleGroupQueryController.getPageList(PageVO<RoleVO> pageVO)
        根据code或者名称搜索角色组信息/rolegroup/search: List<RoleVO> RoleGroupQueryController.search(String search)


        分页获取角色组信息: PageDTO<RoleGroupDTO> RoleGroupQueryFacade.getPageList()
        创建角色组: RoleGroupDTO RoleGroupFacade.createRole(CreateRoleRequestDTO createRoleRequestDTO)
        修改角色组信息: Boolean RoleGroupFacade.updateRole(UpdateRoleRequestDTO updateRoleRequestDTO)
        设置角色组状态: Boolean RoleGroupFacade.updateRoleStatus(String groupCode,Integer status)
        根据code获取角色组详情: RoleGroupDTO RoleGroupQueryFacade.getByRoleCode(String groupCode)
        根据code或者名称搜索角色组信息: List<RoleDTO> RoleGroupQueryFacade.search(String search)


    }

    class "权限-AuthorityBO" as AuthorityBO{
        权限编码标示:String authCode
        权限类型:Integer authorityType
        关联角色:String roleCode
        关联角色组:String roleGroupCode
        数据字段权限列表:List<DataAuthorityBO>  dataAuthorityBOList
        系统菜单权限列表:List<SystemAuthorityBO>  systemAuthorityBOList
        行政权限列表:List<AdminAuthorityBO>  adminAuthorityBOList
        权限状态:Integer status
        .. extend info ..
        tableKey:String authority

        facadeKey:String AuthorityFacade,AuthorityQueryFacade
        controllerKey:String AuthorityController,AuthorityQueryController

        dtoKeyList:String UpdateAuthorityRequestDTO,AuthorityDTO,CreateAuthorityRequestDTO
        voKeyList:String UpdateAuthorityRequestVO,AuthorityVO,CreateAuthorityRequestVO

        queryDtoKey:AuthorityQueryDTO String authCode,Integer authorityType,String roleCode,String roleGroupCode
        queryVoKey:AuthorityQueryVO String authCode,Integer authorityType,String roleCode,String roleGroupCode

        contextKey:String authority


        !invokeFileKey:String createauthoritydata.puml,queryauthoritydata.puml,queryauthoritydatahttp.puml
        判断用户有没有访问某系统的权限: AuthorityDTO AuthorityQueryFacade.checkUserSystemAuth(Long userId,String systemCode)
        根据用户和系统获取系统权限信息: AuthorityDTO AuthorityQueryFacade.getUserSystemAuth(Long userId,String systemCode)
        根据权限code获取权限信息: AuthorityDTO AuthorityQueryFacade.getByCode(String authCode)
        分页获取权限信息: PageDTO<AuthorityDTO> AuthorityQueryFacade.getPageList(String authCode)
        给角色授权: AuthorityDTO AuthorityFacade.saveAuthority(CreateAuthorityRequestDTO createAuthorityRequestDTO).@I.@T
        修改授权信息: Boolean AuthorityFacade.updateAuthority(UpdateAuthorityRequestDTO updateAuthorityRequestDTO)


        分页获取权限信息/authority/pagelist: PageVO<AuthorityVO> AuthorityQueryController.getPageList()
        获取权限信息/authority/getbycode: AuthorityVO AuthorityQueryController.getByCode(String authCode)
        给角色授权/authority/savetorole: AuthorityVO AuthorityController.saveAuthority(CreateAuthorityRequestVO createAuthorityRequestDTO)
        判断用户有没有访问某系统的权限/authority/check/userauth: AuthorityVO AuthorityQueryController.checkUserSystemAuth(Long userId,String systemCode)


    }


    class "数据字段权限-DataAuthorityBO" as DataAuthorityBO {
        权限编码标示:String authCode
	    数据字段ID:List<Long> dataColumnIdList;
        .. extend info ..
        tableKey:String data_authority

        facadeKey:String DataAuthorityFacade,DataAuthorityQueryFacade
        controllerKey:String DataAuthorityController,DataAuthorityQueryController

        dtoKeyList:String UpdateDataAuthorityRequestDTO,DataAuthorityDTO,CreateDataAuthorityRequestDTO
        voKeyList:String UpdateDataAuthorityRequestVO,DataAuthorityVO,CreateDataAuthorityRequestVO

        queryDtoKey:DataAuthorityQueryDTO String authCode,List<Long> dataColumnIdList
        queryVoKey:DataAuthorityQueryVO String authCode,List<Long> dataColumnIdList

        contextKey:String authority


        根据权限code获取数据权限信息: DataAuthorityDTO DataAuthorityQueryFacade.getByCode(String authCode)
        分页获取数据权限信息: PageDTO<DataAuthorityDTO> DataAuthorityQueryFacade.getPageList(PageDTO<DataAuthorityQueryDTO>  pageDTO)
        给角色授权数据权限: DataAuthorityDTO DataAuthorityFacade.saveDataAuthority(CreateDataAuthorityRequestDTO createAuthorityRequestDTO)
        修改角色授权数据权限: DataAuthorityDTO DataAuthorityFacade.saveDataAuthority(UpdateDataAuthorityRequestDTO createAuthorityRequestDTO)

        分页获取权限信息/dataauthority/pagelist: PageVO<DataAuthorityVO> DataAuthorityQueryController.getPageList(PageVO<DataAuthorityVO> pageVO)

        获取数据权限信息/dataauthority/getbycode: DataAuthorityVO DataAuthorityQueryController.getByCode(String authCode)
        判断用户有没有访问某数据的权限/dataauthority/check: DataAuthorityVO DataAuthorityQueryController.checkUserSystemAuth(Long userId,String systemCode)
        给角色授权数据权限: DataAuthorityVO DataAuthorityController.saveDataAuthority(CreateDataAuthorityRequestVO createAuthorityRequestVO)

    }

    class "系统菜单权限-SystemAuthorityBO" as SystemAuthorityBO{
        权限编码标示:String authCode
        业务数据系统标示:String systemCode
        功能:String funcCode
        菜单:String categoryCode
        按钮:String menuCode
        .. extend info ..
        exportaclkey:String DepartmentQueryDTO(categoryName->deptName)
        tableKey:String system_authority
        facadeKey:String SystemAuthorityFacade,SystemAuthorityQueryFacade
        controllerKey:String SystemAuthorityController,SystemAuthorityQueryController

        dtoKeyList:String UpdateSystemAuthorityRequestDTO,SystemAuthorityDTO,CreateSystemAuthorityRequestDTO
        voKeyList:String UpdateSystemAuthorityRequestVO,SystemAuthorityVO,CreateSystemAuthorityRequestVO

        queryDtoKey:SystemAuthorityQueryDTO String authCode,String systemCode,String funcCode
        queryVoKey:SystemAuthorityQueryVO String authCode,String systemCode,String funcCode

        contextKey:String authority


        获取系统菜单权限信息: SystemAuthorityDTO SystemAuthorityQueryFacade.getByCode(String authCode)
        给角色授权系统菜单权限: DataAuthorityDTO SystemAuthorityFacade.saveSystemAuthority(CreateSystemAuthorityRequestDTO createAuthorityRequestDTO).@I.@T
        修改角色授权系统菜单权限: Boolean SystemAuthorityFacade.saveSystemAuthority(UpdateSystemAuthorityRequestDTO createAuthorityRequestDTO)

        获取系统菜单权限信息/systemauthority/getbycode: SystemAuthorityDTO SystemAuthorityQueryController.getByCode(String authCode)
        分页获取系统菜单权限信息/systemauthority/pagelist: PageVO<SystemAuthorityDTO> getPageList(PageVO<SystemAuthorityDTO> pageVO)

    }

    class "行政权限-AdminAuthorityBO" as AdminAuthorityBO {
        权限编码标示:String authCode
	    组织部门:Long departmentId
        城市:Long cityId
        职位:Long jobId
        .. extend info ..
        exportaclkey:String DepartmentQueryDTO(departmentId->deptId)

        tableKey:String admin_authority
        facadeKey:String AdminAuthorityFacade,AdminAuthorityQueryFacade
        controllerKey:String AdminAuthorityController,AdminAuthorityQueryController

        dtoKeyList:String UpdateAdminAuthorityRequestDTO,AdminAuthorityDTO,CreateAdminAuthorityRequestDTO
        voKeyList:String UpdateAdminAuthorityRequestVO,AdminAuthorityVO,CreateAdminAuthorityRequestVO

        queryDtoKey:SystemAuthorityQueryDTO String authCode,String systemCode,String funcCode
        queryVoKey:SystemAuthorityQueryVO String authCode,String systemCode,String funcCode

        contextKey:String authority


        获取系统菜单权限信息: AdminAuthorityDTO AdminAuthorityQueryFacade.getByCode(String authCode)
        给角色授权系统菜单权限: AdminAuthorityDTO AdminAuthorityFacade.saveAdminAuthority(CreateSystemAuthorityRequestDTO createAuthorityRequestDTO)
        修改角色授权系统菜单权限: Boolean AdminAuthorityFacade.updateAdminAuthority(UpdateSystemAuthorityRequestDTO createAuthorityRequestDTO)

        获取系统菜单权限信息/systemauthority/getbycode: AdminAuthorityVO AdminAuthorityQueryController.getByCode(String authCode)
        分页获取系统菜单权限信息/systemauthority/pagelist: PageVO<AdminAuthorityVO> AdminAuthorityQueryController.getPageList(PageVO<AdminAuthorityVO> pageVO)


    }

    class "系统设置-SystemConfig" as SystemConfig{
        变量名:String varName
        变量描述:String varDesc
        变量值:String value
    }

    class "系统管理-SystemBO" as SystemBO{
        系统名称:String systemName
        系统标示:String systemCode
        系统域名:String systemUrl
        系统图标:String systemPicUrl
        系统技术负责人:Long tecAdminUserId
        系统业务负责人:Long busAdminUserId
        系统当前所在部门:Long departmentId
        系统模块列表:List<ModuleBO> moduleBOList
        .. extend info ..
        tableKey:String system
        controllerKey:String SystemController

        facadeKey:String SystemFacade,SystemQueryFacade
        controllerKey:String SystemController,SystemQueryController

        dtoKeyList:String UpdateSystemRequestDTO,SystemDTO,CreateSystemRequestDTO
        voKeyList:String UpdateSystemRequestVO,SystemVO,

        queryDtoKey:SystemQueryDTO String systemName,String systemCode,Long tecAdminUserId,Long departmentId
        queryVoKey:SystemQueryVO String systemName,String systemCode,Long tecAdminUserId,Long departmentId

        contextKey:String system
        validateKey:String systemName,systemCode,departmentId

        invokeFileKey:String systemcontextseq.puml
        注册系统: SystemDTO SystemFacade.registSystem(SystemDTO systemDTO)
        分页获取系统信息: PageDTO<SystemDTO> SystemFacade.getPageList(PageDTO pageDto)
        获取单条系统信息: SystemDTO SystemQueryFacade.getBySystemCode(String systemCode)
        修改系统信息: Boolean SystemFacade.updateSystem(UpdateSystemRequestDTO dto)
        搜索获取系统信息: List<SystemDTO> SystemQueryFacade.getSearchList(String search)


        分页获取系统信息/system/pagelist: PageVO<SystemVO> SystemQueryController.getPageList(SystemVO systemVO)
        搜索获取系统信息/system/search: List<SystemVO> SystemQueryController.getSearchList(String search)
        新建系统信息/system/save: SystemVO SystemController.saveSystem(CreateSystemRequestVO systemVO)
        修改系统信息/system/update: Boolean SystemController.updateSystem(UpdateSystemRequestVO systemVO)
        通过系统编号获取系统信息/system/getbycode: SystemVO SystemQueryController.getByCode(String systemCode)

    }
    class "菜单/模块管理-ModuleBO" as ModuleBO{
        菜单名称:String moduleName
        菜单编码:String moduleCode
        菜单链接:String moduleUrl
        系统标示:String systemCode
        按钮列表:List<MenuBO> menuBOList
        .. extend info ..
        tableKey:String module
        facadeKey:String ModuleFacade
        controllerKey:String ModuleController
        dtoKeyList:String UpdateModuleRequestDTO,ModuleDTO,CreateModuleRequestDTO
        voKeyList:String  UpdateModuleRequestVO,ModuleVO,CreateModuleRequestVO

        contextKey:String system


        创建菜单信息/module/createmodule: List<ModuleVO> createModule(CreateModuleRequestVO createModuleRequestVO)
        创建菜单信息/module/updatemodule: List<ModuleVO> updateModule(UpdateModuleRequestVO updateModuleRequestVO)
        获取系统菜单列表信息/module/getbysystemcode: List<ModuleVO> getBySystemCode(String systemCode)
        获取菜单信息/module/getbycode: ModuleVO getByModuleCode(String moduleCode)
        分页获取菜单信息/module/pagelist: PageDTO<ModuleVO> getPageList()
        导入菜单信息/module/import: Boolean importModuleList(List<CreateModuleRequestVO> createRequest)
        导出菜单信息/module/export: Boolean exportModuleList(String systemCode)
    }

     class "按钮管理-MenuBO" as MenuBO{
         按钮名称:String menuName
         按钮编码:String menuCode
         按钮链接:String menuUrl
         系统编码:String systemCode
         菜单编码:String moduleCode
        .. extend info ..
        tableKey:String menu
        facadeKey:String MenuFacade
        controllerKey:String MenuController
        dtoKeyList:String UpdateMenuRequestDTO,MenuDTO,CreateMenuRequestDTO
        voKeyList:String UpdateMenuRequestVO,MenuVO,CreateMenuRequestVO

        contextKey:String system


        注册按钮: MenuDTO registMenu(MenuDTO menuDTO)
        分页获取按钮信息: PageDTO<SystemDTO> getPageList(PageDTO pageDto)
        获取单条按钮信息: MenuDTO getByMenuCode(String systemCode)
        修改按钮信息: Boolean updateMenu(UpdateMenuRequestDTO dto)


        修改按钮信息/menu/updatemenu: Boolean updateMenu(UpdateMenuRequestVO updateMenuRequestVO)
        创建按钮信息/menu/createmenu: MenuVO createMenu(CreateMenuRequestVO createMenuRequestVO)
        获取按钮详情信息/menu/getbycode: MenuVO getByCode(String menuCode)
        获取按钮列表信息/menu/pagelist: PageVO<MenuVO> getPageList(String moduleCode )



     }

     class "数据字段实体-DataColumnBO" as DataColumnBO{
         数据库业务系统名称:String busDataBase
         数据库表名称:String tableName
         数据库表描述:String tableDesc
         数据库字段名称:String columnName
         数据库字段描述:String columnDesc
         业务字段名称:String fieldName
         .. extend info ..
         tableKey:String data_column_config

         controllerKey:String DataColumnController
         facadeKey:String DataColumnFacade

         dtoKeyList:String DataColumnDTO
         voKeyList:String DataColumnVO

         queryDtoKey:DataColumnQueryDTO String busDataBase,String tableName,String columnName
         queryVoKey:DataColumnQueryVO  String busDataBase,String tableName,String columnName

         contextKey:String config

         !invokeFileKey:String datacolumncontextseq.puml
         获取数据字段信息/datacolumn/getbycode: List<DataColumnVO> getListByBusDataBase(String busDataBase)
         分页获取数据字段信息/datacolumn/pagelist: PageVO<DataColumnVO> getPageList(PageVO pageVO)
         导入数据字段列表/datacolumn/import: Boolean importDataColumnList(List<DataColumnVO> dataColumnVOList)


         获取数据字段信息: List<DataColumnDTO> getListByBusDataBase(String busDataBase)
         分页获取数据字段信息: PageDTO<DataColumnDTO> getPageList(PageDTO PageDTO)
         导入数据字段列表: Boolean importDataColumnList(List<DataColumnDTO> dataColumnDTOList)



     }


    class "AuthAggregateBO-权限聚合根" as AuthAggregateBO{
        +系统权限:List<SystemBO> systemBOList
        +菜单权限:List<ModuleBO> moduleBOList
        +按钮权限:List<MenuBO> menuBOList
        +城市权限:List<String> cityIdList
        +部门权限:List<Long> departmentIdList
        +数据字段权限:List<DataColumnBO> dataColumnBOList
        .. extend info ..
        contextKey:String authority
    }

    class "UserAuthAggregateBO-用户权限聚合根" as UserAuthAggregateBO{
        用户ID:Long userId
        .. extend info ..
        contextKey:String authority
    }

    class "RoleAuthAggregateBO-角色权限聚合根" as RoleAuthAggregateBO{
        角色ID:Long roleId
        .. extend info ..
        contextKey:String authority
    }

    AuthorityBO <|-- DataAuthorityBO
    AdminAuthorityBO --|> AuthorityBO
    SystemAuthorityBO --|> AuthorityBO
    UserAuthAggregateBO --|> AuthAggregateBO
    RoleAuthAggregateBO --|> AuthAggregateBO

}


package domain.msgbody {
    class "UserStatusChangeMsgBody-接收用户状态变更消息" as UserChangeMsgBody{
        用户ID:Long userId
        状态类型:Integer statusType
    }
}

package domain.event{
    class "MenuChangedEvent-按钮信息变更事件" as MenuChangedEvent{
        按钮code:String menuCode
        变更事件类型:Integer changeEventType
        按钮内容:MenuBO menuBO
    }
    class "RoleChangedEvent-角色变更事件" as RoleChangedEvent{
        角色code:String roleCode
        变更事件类型:Integer changeEventType
        角色内容:RoleBO roleBO
    }
    class "RoleAuthChangedEvent-角色授权变更事件" as RoleAuthChangedEvent{
        角色code:String roleCode
        权限code:String authCode
        变更事件类型:Integer changeEventType
        角色内容:RoleBO roleBO
    }

    BaseEvent <|-- MenuChangedEvent
    BaseEvent <|-- RoleChangedEvent
    BaseEvent <|-- RoleAuthChangedEvent
}

package domain.repository {
 interface "系统菜单按钮仓库服务-SystemModuleRepository" as SystemModuleRepository{
        创建系统信息:Long saveSystem(SystemBO systemBO)
        更新系统信息:Integer updateSystem(SystemBO systemBO)
        创建菜单信息:Long saveModule(ModuleBO moduleBO)
        更新菜单信息:Integer updateModule(ModuleBO moduleBO)
        创建按钮信息:Long saveMenu(MenuBO moduleBO)
        更新按钮信息:Integer updateMenu(MenuBO moduleBO)

    }
    interface "权限管理仓库-AuthorityRepository" as AuthorityRepository{
            给角色构建权限:Boolean buildAuthority(AuthorityBO authorityBO)
            给角色更新权限:Boolean updateAuthority(AuthorityBO authorityBO)
            根据权限code禁用权限资源:Boolean disableAuthority(String authorityCode)
            根据权限code查询权限资源:AuthorityBO getByCode(String authorityCode)
            根据角色code查询权限资源:AuthorityBO getByRoleCode(String roleCode)
    }
     interface "用户和角色管理仓库-UserRoleRepository" as UserRoleRepository{
            保存用户组并尝试关联用户:Long saveUserGroup(UserGroupBO userGroupBO)
            更新用户组:Integer updateUserGroup(UserGroupBO userGroupBO)
            保存角色组并尝试关联角色:Long saveRoleGroup(RoleGroupBO roleGroupBO)
            更新角色组:Integer updateRoleGroup(RoleGroupBO roleGroupBO)
            保存角色:Long saveRole(RoleBO roleBO)
            更新角色:Integer updateRole(RoleBO roleBO)
            分页获取角色:List<RoleBO> getPageList(PageBO pageBO)
            根据code查询用户组详情:UserGroupBO getByUserGroupCode(String userGroupCode)
            根据code查询角色详情:RoleBO getByRoleCode(String roleCode)
            根据code查询角色组详情:RoleGroupBO getByRoleGroupCode(String roleGroupCode)
        }
}
package domain.gataway {


    interface "系统菜单按钮查询服务-SystemModuleQueryGataWay" as SystemModuleQueryGataWay{
        分页查询系统列表:List<SystemBO> querySystemPage(PageBO pageBO)
        分页查询菜单列表:List<ModuleBO> queryModulePage()
        基于系统code查询菜单和按钮:List<SystemBO> queryBySystemCode(String systemCode)
        根据条件查询系统:List<SystemBO> queryByCondition(String search)
        查询所有系统菜单和按钮:List<SystemBO> queryWithAll(String search)
        根据code查询系统详情:SystemBO getSystemByCode(String systemCode)
        根据code查询菜单详情:ModuleBO getModuleByCode(String moduleCode)
        根据code查询按钮详情:MenuBO getMenu(String menuCode)
    }




    interface "数据字段管理网关-DataColumnConfigGataway" as DataColumnConfigGataway{
        保存数据字段:Long saveDataColumn(DataColumnBO dataColumnBO)
        批量保存保存数据字段:Boolean saveBatchDataColumn(List<DataColumnBO> list)
        更新数据字段:Long updateDataColumn(DataColumnBO dataColumnBO)
        根据ID查询数据字段详情:DataColumnBO getById(Long id)
        根据数据库名称获取字段元数据内容:List<DataColumnBO> getByDBCode(String busDataBase)
        分页查询数据字段内容:List<DataColumnBO> getPageList(PageBO pageBO)
    }

}


package "领域工厂服务包-domain.factory" {
    class "权限工厂服务-AuthorityFactory" as AuthorityFactory{
        +基于权限本身的维度-权限编码构建权限模型:AuthorityBO buildAuthorityByCode(String authorityCode)
        +基于用户的维度构建权限模型:UserAuthAggregateBO buildAuthorityWithRoleCode(String roleCode)
    }

}

package   "防腐层包-infrast.acl" as   infrast.acl {
    interface   "部门查询服务适配器-DepartmentServiceAdapter" as DepartmentServiceAdapter{
        查询所有有效的部门: List<DepartDTO> queryAllDepartment(DepartmentQueryDTO queryDto)
        查询子部门: List<DepartDTO> queryDepartmentsList(Long pId)
    }

    interface   "省份城市查询服务适配器-AreaServiceAdapter" as AreaServiceAdapter{
        查询所有的省份: List<ProvinceDTO> queryAllProvince()
        查询省份下所有城市: List<CityDTO> queryCityByProvinceid(Long provinceId)
    }

}

package   "缓存包-infrast.cache" as   infrast.cache {
    class "抽象业务缓存服务-AbstractCache" as AbstractCache{


    }

    class "系统菜单缓存服务-SystemCache" as SystemCache{
    }

    class "角色用户缓存服务-UserRoleGroupCache" as UserRoleGroupCache{

    }

    class "数据权限缓存-DataAuthorityCache" as DataAuthorityCache{

    }

    class "系统菜单权限缓存-SystemAuthorityCache" as SystemAuthorityCache{

    }

    class "行政权限缓存-AdminAuthorityCache" as AdminAuthorityCache{

    }

    class "基于用户维度的缓存-UserAuthorityCache" as UserAuthorityCache{

    }

    class "基于角色维度的缓存-RoleAuthorityCache" as RoleAuthorityCache{

    }

    SystemCache --|> AbstractCache

    UserRoleGroupCache --|> AbstractCache
    DataAuthorityCache --|> AbstractCache
    SystemAuthorityCache --|> AbstractCache
    AdminAuthorityCache --|> AbstractCache
    UserAuthorityCache --|> AbstractCache
    RoleAuthorityCache --|> AbstractCache

}

package app.validator{
    class "RoleValidator-角色相关校验处理服务" as RoleValidator{

        +创建逻辑校验:void validate(UpdateRoleRequestDTO updateRoleRequestDTO)
        +修改逻辑校验:void validate(CreateRoleRequestDTO createRoleRequestDTO)

    }

    class "AuthorityValidator-权限相关校验处理服务" as AuthorityValidator{

    }


    class "SystemValidator-系统相关校验处理服务" as SystemValidator{
        +创建逻辑校验:void validate(CreateSystemRequestDTO createSystemRequestDTO)
        +修改逻辑校验:void validate(UpdateSystemRequestDTO updateSystemRequestDTO)
    }

}

package app.command {

    class "抽象命令类-AbstractCmd" as AbstractCmd{
        +操作时间: Date operateTime
        +操作人ID: Long userId
        +命令类: Class commandClass
        +命令数据: String payLoad;

    }

    class "增加用户组命令-AddUserGroupCmd"   as AddUserGroupCmd{
        组名:String groupName
        用户ID:Long userId
    }

    class "增加用户命令-AddUserCmd" as AddUserCmd{
        用户名:String userName
        用户ID:Long userId
        所属组织:Long departmentId
    }

    class "增加用户权限-AddUserAuthCmd" as AddUserAuthCmd{
        用户ID:Long userId
        角色ID:Long roleId
        权限类型:int authorityType
        权限数据内容:String json
    }

    class "更新用户权限-UpdateUserAuthCmd" as UpdateUserAuthCmd{
        用户ID:Long userId
        角色ID:Long roleId
        权限数据内容:String json
    }

    class "更新角色权限-UpdateRoleAuthCmd" as UpdateRoleAuthCmd{
        角色ID:Long roleId
        权限数据内容:String json
    }

     class "对角色权限-AddRoleAuthCmd" as AddRoleAuthCmd{
         角色ID:Long roleId
         权限数据内容:String json
     }

    AddUserRoleCmd --|> AbstractCmd
    AddUserGroupCmd --|> AbstractCmd
    AddUserCmd --|> AbstractCmd
    AddUserAuthCmd --|> AbstractCmd
    UpdateUserAuthCmd --|> AbstractCmd
    AddRoleAuthCmd --|> AbstractCmd
    UpdateRoleAuthCmd --|> AbstractCmd

}


package app.exe {

    interface  "命令执行接口-CmdExeService"     as    CmdExeService{
        命令执行入口:String exe(AbstractCmd abstractCmd).@T
    }

    class "用户组cmd处理类-UserGroupCmdExe" as UserGroupCmdExe{

    }

    class "用户cmd处理类-UserCmdExe" as UserCmdExe{

    }

    class "用户权限cmd处理类-UserAuthCmdExe" as UserAuthCmdExe{

    }


    class "角色权限cmd处理类-RoleAuthCmdExe" as RoleAuthCmdExe{

    }

    UserGroupCmdExe ..|> CmdExeService
    UserCmdExe ..|> CmdExeService
    UserAuthCmdExe ..|> CmdExeService
    RoleAuthCmdExe ..|> CmdExeService

}



package "应用层事件监听器包支持域内消息和域外消息，在应用层处理消息-app.listener"  as app.listener{
    class "权限变更监听器-AuthorityChangeListener" as AuthorityChangeListener{
         +事务提交后权限变更监听:void authorityCreate(String authCode).@TE
         +用户状态信息变更监听消费:void userStatusChange(Long userId).@TE
    }

    class "系统菜单按钮变更监听器-SystemChangeListener" as SystemChangeListener{
         +事务提交后权限变更监听:void systemChange(MenuChangedEvent event).@TE
    }
}



package   "基础设施层消息生产者-mq.producer" as   mq.producer {
    class "权限上下文消息生产者-AuthorityMqProducer" as AuthorityMqProducer{
         +权限创建:void authorityCreate(String authCode).@TE
         +权限更新:void authorityUpdate(String authCode).@TE
    }

    class "系统上下文消息生产者-SystemMqProducer" as SystemMqProducer{
         +事务提交后权限变更监听:void systemChange(MenuChangedEvent event)
    }
}

package   "基础设施层消息消费者-mq.consumer" as   mq.consumer {
    class "用户上下文消息消费者或者监听-UserMqConsumer.@M" as UserMqConsumer{
         +监听用户状态变更:void consumeUserStatusChange(String mqBody)
    }
    class "组织上下文消息消费者或者监听-DepartmentMqConsumer.@M" as DepartmentMqConsumer{
         +监听组织状态变更:void consumeDepartmentStatusChange(String mqBody)
    }
}


package   "基础设施层消息消费处理器或者直接在基础设施层处理消息代码方案一-mq.handler" as   mq.handler {
    class "用户上下文消息处理器-UserMqHandler.@M" as UserMqHandler{
         +处理用户状态变更的权限信息:void handleUserStatusChange(String mqBody)
    }
}

@enduml